<svg xmlns="http://www.w3.org/2000/svg" fill="none" viewBox="0 0 24 24" stroke-width="1.75" stroke="#334155" stroke-linecap="round" stroke-linejoin="round" aria-hidden="true">
    <path d="M15.75 17.25v3.375c0 .621-.504 1.125-1.125 1.125h-9.75a1.125 1.125 0 01-1.125-1.125V7.875c0-.621.504-1.125 1.125-1.125H6.75m9 2.25H9.375a1.125 1.125 0 00-1.125 1.125v9.75m9-11.25h3.375c.621 0 1.125.504 1.125 1.125v9.75a1.125 1.125 0 01-1.125 1.125h-9.75a1.125 1.125 0 01-1.125-1.125V9.375c0-.621.504-1.125 1.125-1.125H18" />
</svg>
